<svg width="29" height="29" viewBox="0 0 29 29" fill="none" xmlns="http://www.w3.org/2000/svg">
<path d="M11.8924 8.99403L11.8927 8.99469C12.0507 9.34663 12.313 9.98542 12.523 10.4968L12.5264 10.5052C12.6091 10.7067 12.6839 10.8887 12.7422 11.0288C12.7714 11.0989 12.7959 11.1572 12.8149 11.2015C12.8244 11.2237 12.8321 11.2413 12.838 11.2545C12.8436 11.2671 12.846 11.272 12.846 11.272C12.8459 11.272 12.8459 11.2718 12.8457 11.2716C12.9593 11.4976 13.0697 11.8515 12.8722 12.2564L11.8924 8.99403ZM11.8924 8.99403C11.7516 8.68134 11.5742 8.44698 11.3331 8.30718M11.8924 8.99403L11.3331 8.30718M8.88889 8.76107L8.88889 8.76107C8.9098 8.73897 8.9269 8.72089 8.94197 8.70464C8.94197 8.70464 8.94197 8.70463 8.94198 8.70463L9.30858 9.04463L8.88889 8.76107ZM8.88889 8.76107C8.53908 9.13076 7.72063 9.99951 7.72063 11.6328C7.72063 12.4963 8.03042 13.3178 8.34107 13.9317C8.65509 14.5523 8.99216 15.0033 9.08663 15.1297L9.08669 15.1298L9.08672 15.1298L9.09291 15.1381C9.09282 15.138 9.09293 15.1382 9.09328 15.1387C9.09444 15.1403 9.09817 15.1456 9.1058 15.1567L9.14322 15.2118L9.55735 14.9317L9.14322 15.2118L9.14895 15.2203C9.55028 15.8136 11.5553 18.7775 14.6307 19.9869C15.8354 20.4611 16.6332 20.6885 17.2116 20.7856C17.8085 20.8857 18.1604 20.8443 18.4456 20.8098L18.3856 20.3134M8.88889 8.76107L18.3856 20.3134M18.3856 20.3134L18.4456 20.8098C18.5022 20.803 18.5495 20.7973 18.596 20.7929L18.3856 20.3134ZM11.3331 8.30718C11.1016 8.17299 10.8743 8.16722 10.7617 8.16436M11.3331 8.30718L10.7617 8.16436M10.7617 8.16436C10.7584 8.16428 10.7551 8.16419 10.752 8.16411L10.7617 8.16436ZM9.03266 24.478C8.92115 24.4176 8.79086 24.4019 8.66816 24.4339L3.12891 25.8807L4.60822 20.5111C4.64383 20.3818 4.62604 20.2437 4.55885 20.1277C3.5488 18.3837 3.01755 16.4061 3.01827 14.3934V14.3932C3.01827 8.06781 8.19567 2.91699 14.5507 2.91699C17.6404 2.91699 20.5322 4.11404 22.7098 6.28146C24.8869 8.44839 26.0833 11.3313 26.0833 14.3991C26.0833 20.7244 20.9059 25.8753 14.5508 25.8753H14.5448C12.6139 25.8753 10.7172 25.3905 9.03266 24.478ZM12.839 12.3249L12.8721 12.2565L21.263 17.089C21.2629 17.089 21.2629 17.0889 21.2629 17.0889C21.17 16.9325 21.0358 16.8367 20.9385 16.7773C20.8449 16.7201 20.734 16.667 20.6368 16.6204L20.6236 16.614L20.4074 17.0649L20.6236 16.614C20.57 16.5883 20.5157 16.5623 20.458 16.5336L20.458 16.5335C20.3004 16.4551 19.8381 16.2281 19.3792 16.0071C18.9346 15.7931 18.453 15.5651 18.2822 15.5014L18.2821 15.5014L18.2812 15.501C18.1484 15.4515 17.9168 15.3651 17.6677 15.3944C17.3656 15.43 17.1475 15.6118 16.9923 15.8466C16.8044 16.1234 16.2461 16.7758 16.0499 17.0036C16.03 16.9963 16.0033 16.985 15.9689 16.9679C15.9059 16.9366 15.8263 16.9022 15.7496 16.8691L15.7399 16.8649L15.7387 16.8644C15.3179 16.6829 14.51 16.3343 13.5742 15.5012L13.5733 15.5004C12.7258 14.7494 12.1375 13.8121 11.9528 13.4968C11.9657 13.4834 11.98 13.469 11.9983 13.4508L11.9986 13.4505C12.1035 13.346 12.2185 13.207 12.3141 13.0915L12.3236 13.0799L11.9384 12.7612L12.3236 13.0799C12.383 13.0082 12.4376 12.9423 12.489 12.8833L12.4891 12.8832C12.6704 12.6749 12.7527 12.5041 12.835 12.3333L12.839 12.3249L12.839 12.3249Z" fill="#323B48" stroke="#323B48" stroke-linejoin="round"/>
</svg>
