<svg width="102" height="95" viewBox="0 0 102 95" fill="none" xmlns="http://www.w3.org/2000/svg">
<rect x="42" y="18.7954" width="24" height="64" fill="white"/>
<path fill-rule="evenodd" clip-rule="evenodd" d="M39.4589 6.0911C45.0097 -2.03038 56.9901 -2.03035 62.5409 6.09111L64.7365 9.30351C78.4922 29.4295 90.3108 50.8131 100.034 73.168L100.492 74.2224C103.919 82.1003 98.7422 91.0455 90.2045 91.9998C64.1492 94.9118 37.8506 94.9118 11.7953 91.9998C3.25759 91.0455 -1.9191 82.1003 1.50735 74.2224L1.96594 73.168C11.689 50.8132 23.5075 29.4295 37.2633 9.30348L39.4589 6.0911ZM56.0833 31.5452C56.0833 34.3527 53.8074 36.6285 51 36.6285C48.1925 36.6285 45.9167 34.3527 45.9167 31.5452C45.9167 28.7378 48.1925 26.4619 51 26.4619C53.8074 26.4619 56.0833 28.7378 56.0833 31.5452ZM51 45.5244C53.1056 45.5244 54.8125 47.2313 54.8125 49.3369V74.7535C54.8125 76.8591 53.1056 78.566 51 78.566C48.8944 78.566 47.1875 76.8591 47.1875 74.7535V49.3369C47.1875 47.2313 48.8944 45.5244 51 45.5244Z" fill="#E63131"/>
</svg>
