<svg width="24" height="24" viewBox="0 0 24 24" fill="none" xmlns="http://www.w3.org/2000/svg">
<path d="M17.25 14.9999C16.6886 15.0027 16.135 15.1316 15.6301 15.3769C15.1251 15.6222 14.6817 15.9778 14.3325 16.4174L8.85002 12.9899C9.04983 12.345 9.04983 11.6548 8.85002 11.0099L14.3325 7.58241C14.889 8.27145 15.6714 8.74129 16.5411 8.90871C17.4108 9.07614 18.3117 8.93033 19.0842 8.49713C19.8567 8.06392 20.4509 7.37128 20.7616 6.5419C21.0723 5.71251 21.0794 4.79992 20.7817 3.96578C20.484 3.13165 19.9007 2.4298 19.135 1.98458C18.3694 1.53936 17.4709 1.3795 16.5987 1.53331C15.7265 1.68713 14.9368 2.14469 14.3697 2.82495C13.8025 3.50521 13.4944 4.36425 13.5 5.24991C13.5036 5.58529 13.554 5.91853 13.65 6.23991L8.16752 9.66741C7.6835 9.0581 7.02192 8.61445 6.27448 8.39796C5.52704 8.18147 4.73076 8.20286 3.99603 8.45917C3.26129 8.71548 2.62448 9.19401 2.17388 9.82844C1.72328 10.4629 1.4812 11.2217 1.4812 11.9999C1.4812 12.7781 1.72328 13.537 2.17388 14.1714C2.62448 14.8058 3.26129 15.2843 3.99603 15.5406C4.73076 15.797 5.52704 15.8184 6.27448 15.6019C7.02192 15.3854 7.6835 14.9417 8.16752 14.3324L13.65 17.7599C13.554 18.0813 13.5036 18.4145 13.5 18.7499C13.5 19.4916 13.7199 20.2166 14.132 20.8333C14.5441 21.45 15.1297 21.9306 15.815 22.2145C16.5002 22.4983 17.2542 22.5725 17.9816 22.4279C18.709 22.2832 19.3772 21.926 19.9017 21.4016C20.4261 20.8771 20.7833 20.2089 20.928 19.4815C21.0727 18.7541 20.9984 18.0001 20.7146 17.3148C20.4307 16.6296 19.9501 16.044 19.3334 15.6319C18.7167 15.2198 17.9917 14.9999 17.25 14.9999ZM17.25 2.99991C17.695 2.99991 18.13 3.13187 18.5 3.3791C18.8701 3.62634 19.1584 3.97774 19.3287 4.38887C19.499 4.8 19.5436 5.25241 19.4568 5.68886C19.37 6.12532 19.1557 6.52623 18.841 6.8409C18.5263 7.15557 18.1254 7.36986 17.689 7.45668C17.2525 7.54349 16.8001 7.49894 16.389 7.32864C15.9778 7.15834 15.6264 6.86995 15.3792 6.49994C15.132 6.12993 15 5.69492 15 5.24991C15 4.65317 15.2371 4.08088 15.659 3.65892C16.081 3.23696 16.6533 2.99991 17.25 2.99991ZM5.25002 14.2499C4.80501 14.2499 4.36999 14.1179 3.99998 13.8707C3.62997 13.6235 3.34158 13.2721 3.17129 12.8609C3.00099 12.4498 2.95643 11.9974 3.04325 11.561C3.13007 11.1245 3.34436 10.7236 3.65903 10.4089C3.97369 10.0943 4.37461 9.87996 4.81106 9.79314C5.24752 9.70633 5.69992 9.75088 6.11105 9.92118C6.52219 10.0915 6.87359 10.3799 7.12082 10.7499C7.36806 11.1199 7.50002 11.5549 7.50002 11.9999C7.50002 12.5966 7.26296 13.1689 6.84101 13.5909C6.41905 14.0129 5.84675 14.2499 5.25002 14.2499ZM17.25 20.9999C16.805 20.9999 16.37 20.8679 16 20.6207C15.63 20.3735 15.3416 20.0221 15.1713 19.6109C15.001 19.1998 14.9564 18.7474 15.0432 18.311C15.1301 17.8745 15.3444 17.4736 15.659 17.1589C15.9737 16.8443 16.3746 16.63 16.8111 16.5431C17.2475 16.4563 17.6999 16.5009 18.1111 16.6712C18.5222 16.8415 18.8736 17.1299 19.1208 17.4999C19.3681 17.8699 19.5 18.3049 19.5 18.7499C19.5 19.3466 19.263 19.9189 18.841 20.3409C18.4191 20.7629 17.8468 20.9999 17.25 20.9999Z" fill="white"/>
</svg>
